# xmcd
#
# Track frame offsets: 
#        150
#        16694
#        30690
#        44024
#        60900
#        75516
#        87687
#        104301
#        120035
#
# Disc length: 1810 seconds
#
# Revision: 0
# Processed by: cddbd v1.5.2PL0 Copyright (c) Steve Scherf et al.
# Submitted via: ExactAudioCopy v1.0b1
#
DISCID=5f071009
DTITLE=Craig Monday - Craig Monday
DYEAR=1900
DGENRE=Country
TTITLE0=Seeing You Here
TTITLE1=1st Round And The Last Call
TTITLE2=Dancing In The Moonlight
TTITLE3=That Was Supposed To Be Me
TTITLE4=Back To The Mountain
TTITLE5=Eleifino
TTITLE6=Good Guitar
TTITLE7=If I'm Ever What You Need Again
TTITLE8=It Got A Little Crazy
EXTD=
EXTT0=
EXTT1=
EXTT2=
EXTT3=
EXTT4=
EXTT5=
EXTT6=
EXTT7=
EXTT8=
PLAYORDER=
